<svg width="83" height="35" viewBox="0 0 83 35" fill="none" xmlns="http://www.w3.org/2000/svg">
<path d="M6.84462 16.3032L5.34504 20.3761H8.38122L6.84462 16.3032ZM8.14055 12.7672L12.954 25.023L10.2511 25.3562L9.19581 22.5607H4.56748L3.53074 25.3562H0.809281L5.65977 12.7672H8.14055ZM17.0251 12.2858V25.3562H14.3221V12.4895L17.0251 12.2858ZM22.1777 12.2858V25.3562H19.4747V12.4895L22.1777 12.2858ZM28.7373 16.1181C30.1443 16.1181 31.1873 16.5809 31.8661 17.5066C32.5449 18.4322 32.8843 19.5307 32.8843 20.8019V21.6906H27.0341C27.1575 22.1966 27.4105 22.5915 27.7932 22.8754C28.1881 23.1593 28.688 23.3012 29.2927 23.3012C29.7 23.3012 30.0765 23.258 30.422 23.1716C30.78 23.0729 31.1626 22.9248 31.5699 22.7273L32.3659 24.6527C31.9093 24.9983 31.3539 25.239 30.6997 25.3747C30.0456 25.5105 29.5272 25.5784 29.1446 25.5784C27.6265 25.5784 26.4047 25.1711 25.479 24.3565C24.5657 23.5296 24.109 22.3694 24.109 20.876C24.109 19.4196 24.5348 18.2656 25.3864 17.414C26.238 16.55 27.355 16.1181 28.7373 16.1181ZM28.6633 18.3767C28.2436 18.3767 27.8857 18.5124 27.5895 18.784C27.2933 19.0555 27.102 19.4381 27.0156 19.9318H30.2924C30.2061 19.4628 30.0271 19.0864 29.7556 18.8025C29.484 18.5186 29.1199 18.3767 28.6633 18.3767ZM37.0471 20.8204C37.0471 21.4746 37.1952 22.0547 37.4914 22.5607C37.7876 23.0544 38.3245 23.3012 39.102 23.3012C39.3365 23.3012 39.5957 23.2519 39.8796 23.1531C40.1758 23.042 40.4412 22.9186 40.6757 22.7829V18.9506C40.4288 18.7778 40.1573 18.6297 39.8611 18.5063C39.5649 18.3829 39.2872 18.3211 39.028 18.3211C38.2874 18.3211 37.7691 18.5988 37.4729 19.1542C37.189 19.6973 37.0471 20.2527 37.0471 20.8204ZM43.3971 16.3958V25.3562C43.3971 26.5164 43.0083 27.4544 42.2308 28.1702C41.4656 28.8861 40.2869 29.244 38.6947 29.244C38.3121 29.244 37.7506 29.1576 37.01 28.9848C36.2695 28.812 35.6462 28.5528 35.1402 28.2073L35.9548 26.3004C36.5225 26.5719 37.0039 26.7632 37.3988 26.8743C37.7938 26.9977 38.2072 27.0594 38.6392 27.0594C39.3057 27.0594 39.8117 26.9051 40.1573 26.5966C40.5029 26.3004 40.6757 25.8931 40.6757 25.3747V24.9674C40.3301 25.1526 39.9598 25.2945 39.5649 25.3932C39.1699 25.5043 38.7811 25.5598 38.3985 25.5598C37.0409 25.5598 36.0103 25.1094 35.3068 24.2084C34.6033 23.3074 34.2515 22.1843 34.2515 20.839C34.2515 19.4813 34.6156 18.3458 35.3438 17.4325C36.072 16.5068 37.1335 16.044 38.5281 16.044C38.9848 16.044 39.4846 16.1489 40.0277 16.3587C40.5708 16.5562 41.0398 16.8154 41.4347 17.1363L42.0086 16.3958H43.3971ZM50.7961 16.3772L51.3515 18.5618C50.9319 18.5618 50.4628 18.6606 49.9445 18.858C49.4261 19.0555 48.9324 19.3579 48.4634 19.7652V25.3562H45.742V16.3958H47.1305L47.945 17.5806C48.3153 17.2721 48.7596 16.9944 49.278 16.7475C49.7964 16.5007 50.3024 16.3772 50.7961 16.3772ZM56.9817 16.1181C58.4628 16.1181 59.6353 16.55 60.4992 17.414C61.3755 18.2656 61.8137 19.4381 61.8137 20.9315C61.8137 22.3879 61.3508 23.5234 60.4252 24.338C59.4995 25.1526 58.3085 25.5598 56.8521 25.5598C55.4204 25.5598 54.2788 25.1464 53.4271 24.3195C52.5879 23.4925 52.1682 22.3324 52.1682 20.839C52.1682 19.3702 52.6126 18.2162 53.5012 17.377C54.3898 16.5377 55.55 16.1181 56.9817 16.1181ZM56.8891 23.2827C57.5186 23.2827 58.0246 23.0976 58.4072 22.7273C58.8022 22.3447 58.9997 21.7461 58.9997 20.9315C58.9997 20.1663 58.8269 19.5554 58.4813 19.0987C58.1357 18.6297 57.6482 18.3952 57.0187 18.3952C56.3893 18.3952 55.8894 18.5988 55.5191 19.0061C55.1612 19.4134 54.9823 20.0182 54.9823 20.8204C54.9823 21.6103 55.1427 22.2213 55.4636 22.6533C55.7845 23.0729 56.2597 23.2827 56.8891 23.2827Z" fill="#FB5A04"/>
<path d="M65.7899 23.8936C65.7899 24.3133 65.648 24.665 65.3641 24.9489C65.0926 25.2204 64.7532 25.3562 64.3459 25.3562C63.9263 25.3562 63.5745 25.2204 63.2906 24.9489C63.0068 24.665 62.8648 24.3133 62.8648 23.8936C62.8648 23.474 63.0068 23.1284 63.2906 22.8569C63.5745 22.573 63.9263 22.4311 64.3459 22.4311C64.7532 22.4311 65.0926 22.573 65.3641 22.8569C65.648 23.1284 65.7899 23.474 65.7899 23.8936ZM73.4121 20.8019C73.4121 20.1601 73.2639 19.5862 72.9677 19.0802C72.6715 18.5742 72.1285 18.3211 71.3386 18.3211C71.0917 18.3211 70.8449 18.3643 70.598 18.4507C70.3512 18.5371 70.1229 18.642 69.913 18.7655V22.7643C70.1352 22.9248 70.382 23.0544 70.6536 23.1531C70.9251 23.2519 71.1843 23.3012 71.4311 23.3012C72.1593 23.3012 72.6715 23.0297 72.9677 22.4866C73.2639 21.9312 73.4121 21.3697 73.4121 20.8019ZM67.2101 16.3958H68.5801L69.117 17.0993C69.5366 16.766 70.0118 16.5068 70.5425 16.3217C71.0732 16.1366 71.5731 16.044 72.0421 16.044C73.4121 16.044 74.4488 16.5007 75.1523 17.414C75.8558 18.315 76.2076 19.4381 76.2076 20.7834C76.2076 22.1411 75.8496 23.2765 75.1338 24.1899C74.4303 25.1032 73.3812 25.5598 71.9865 25.5598C71.678 25.5598 71.3386 25.5105 70.9683 25.4117C70.598 25.313 70.2463 25.1834 69.913 25.023V29.2255L67.2101 29.4106V16.3958ZM80.8511 12.2858V25.3562H78.1481V12.4895L80.8511 12.2858Z" fill="#2A4279"/>
</svg>
