<svg width="36" height="36" viewBox="0 0 36 36" fill="none" xmlns="http://www.w3.org/2000/svg">
<path d="M35.5 18C35.5 27.665 27.665 35.5 18 35.5C8.33502 35.5 0.5 27.665 0.5 18C0.5 8.33502 8.33502 0.5 18 0.5C27.665 0.5 35.5 8.33502 35.5 18Z" stroke="#055DA7"/>
<g clip-path="url(#clip0_711_3128)">
<path d="M20.957 18.8334C21.582 18.8334 22.132 18.4917 22.4154 17.9751L25.3987 12.5667C25.707 12.0167 25.307 11.3334 24.6737 11.3334H12.3404L11.557 9.66675H8.83203V11.3334H10.4987L13.4987 17.6584L12.3737 19.6917C11.7654 20.8084 12.5654 22.1667 13.832 22.1667H23.832V20.5001H13.832L14.7487 18.8334H20.957ZM13.132 13.0001H23.257L20.957 17.1667H15.107L13.132 13.0001ZM13.832 23.0001C12.9154 23.0001 12.1737 23.7501 12.1737 24.6667C12.1737 25.5834 12.9154 26.3334 13.832 26.3334C14.7487 26.3334 15.4987 25.5834 15.4987 24.6667C15.4987 23.7501 14.7487 23.0001 13.832 23.0001ZM22.1654 23.0001C21.2487 23.0001 20.507 23.7501 20.507 24.6667C20.507 25.5834 21.2487 26.3334 22.1654 26.3334C23.082 26.3334 23.832 25.5834 23.832 24.6667C23.832 23.7501 23.082 23.0001 22.1654 23.0001Z" fill="#055DA7"/>
</g>
<defs>
<clipPath id="clip0_711_3128">
<rect width="20" height="20" fill="white" transform="translate(8 8)"/>
</clipPath>
</defs>
</svg>
