<svg width="25" height="24" viewBox="0 0 25 24" fill="none" xmlns="http://www.w3.org/2000/svg">
<circle cx="12.8438" cy="12" r="12" fill="#EBEEF2"/>
<g clip-path="url(#clip0_701_18513)">
<path d="M15.3446 7C14.378 7 13.4502 7.45 12.8446 8.16111C12.2391 7.45 11.3113 7 10.3446 7C8.63351 7 7.28906 8.34444 7.28906 10.0556C7.28906 12.1556 9.17795 13.8667 12.0391 16.4667L12.8446 17.1944L13.6502 16.4611C16.5113 13.8667 18.4002 12.1556 18.4002 10.0556C18.4002 8.34444 17.0557 7 15.3446 7ZM12.9002 15.6389L12.8446 15.6944L12.7891 15.6389C10.1446 13.2444 8.40017 11.6611 8.40017 10.0556C8.40017 8.94444 9.23351 8.11111 10.3446 8.11111C11.2002 8.11111 12.0335 8.66111 12.328 9.42222H13.3668C13.6557 8.66111 14.4891 8.11111 15.3446 8.11111C16.4557 8.11111 17.2891 8.94444 17.2891 10.0556C17.2891 11.6611 15.5446 13.2444 12.9002 15.6389Z" fill="#393939"/>
</g>
<defs>
<clipPath id="clip0_701_18513">
<rect width="13.3333" height="13.3333" fill="white" transform="translate(6.17969 5.33325)"/>
</clipPath>
</defs>
</svg>
