<svg width="25" height="25" viewBox="0 0 25 25" fill="none" xmlns="http://www.w3.org/2000/svg">
<path d="M10.6719 14.4016L15.3044 12.0098L10.6719 9.59277V14.4016Z" fill="#055DA7"/>
<path d="M0 0V25H25V0H0ZM21.0819 12.8918C21.0819 14.2821 20.905 15.6724 20.905 15.6724C20.905 15.6724 20.728 16.8605 20.2224 17.3913C19.5652 18.0738 18.8322 18.0738 18.5035 18.1244C16.1021 18.3013 12.4874 18.3013 12.4874 18.3013C12.4874 18.3013 8.01316 18.2508 6.64814 18.1244C6.26897 18.0485 5.40952 18.0738 4.75229 17.3913C4.24673 16.8605 4.06978 15.6724 4.06978 15.6724C4.06978 15.6724 3.89283 14.2821 3.89283 12.8918V11.5773C3.89283 10.1871 4.06978 8.79676 4.06978 8.79676C4.06978 8.79676 4.24673 7.60869 4.75229 7.10313C5.40952 6.42062 6.14258 6.42062 6.47119 6.37007C8.87261 6.19312 12.4874 6.19313 12.4874 6.19313C12.4874 6.19313 16.1021 6.19312 18.5035 6.37007C18.8322 6.42062 19.5652 6.42062 20.2224 7.10313C20.728 7.63397 20.905 8.79676 20.905 8.79676C20.905 8.79676 21.0819 10.1871 21.0819 11.5773V12.8918Z" fill="#055DA7"/>
</svg>
